<svg xmlns="http://www.w3.org/2000/svg" width="208" height="22" viewBox="0 0 208 22" fill="none">
  <g clip-path="url(#clip0_132_1179)">
    <path d="M21.4311 20.1148C19.2147 19.9542 18.7609 19.2061 17.4357 15.4715L11.959 0.905431L11.9411 0.864322C11.8374 0.654419 11.6144 0.523385 11.359 0.522217H11.3557C11.1006 0.522217 10.8768 0.651694 10.7713 0.860897L4.37691 15.458C2.94503 18.9215 2.25973 19.9563 0.491514 20.1151C0.200561 20.1327 0 20.4044 0 20.7879C0 20.8907 0.0178294 20.9841 0.0529431 21.0652C0.136873 21.259 0.316413 21.3794 0.521723 21.3794L0.585799 21.3748C0.817114 21.3417 1.00639 21.3126 1.17183 21.2871C1.89419 21.1762 2.1375 21.1387 3.53122 21.1387C4.58767 21.1387 5.21045 21.225 5.93165 21.3249C6.05162 21.3416 6.17402 21.3585 6.30108 21.3755L6.3608 21.3794C6.55155 21.3794 6.72649 21.284 6.8288 21.1241C6.89272 21.0243 6.92651 20.9028 6.92651 20.7728C6.92651 20.4149 6.69294 20.1319 6.38976 20.1151C4.82732 19.978 4.82724 19.7036 4.82724 19.4828C4.82724 18.7743 5.32047 17.6384 6.00312 16.0661L7.02398 13.6154H13.2141L14.0627 15.7892L14.1627 16.0668C14.6536 17.4293 15.1174 18.7163 15.1174 19.4828C15.1174 19.8423 14.9935 19.9212 13.4434 20.1062L13.3627 20.1158C13.0828 20.1377 12.8907 20.391 12.8907 20.7468C12.8907 20.8756 12.9187 20.9913 12.9741 21.0908C13.0747 21.2715 13.2576 21.3793 13.4633 21.3793L13.5276 21.3748C14.6504 21.2137 16.0642 21.1386 17.977 21.1386C19.3136 21.1386 20.6251 21.2869 21.2879 21.3754L21.336 21.0141C21.3394 21.0144 21.343 21.0148 21.3463 21.015V21.3794C21.5522 21.3794 21.7351 21.2714 21.8359 21.0905C21.8914 20.9909 21.9195 20.8751 21.9195 20.746C21.9195 20.3839 21.7199 20.1282 21.4311 20.1148ZM7.70243 12.1083L10.4163 5.68144L12.7012 12.1083H7.70243ZM21.3463 21.015C21.3429 21.0145 21.3396 21.0134 21.3362 21.0128L21.3463 20.9373V21.015ZM21.3658 21.0165C21.3687 21.0167 21.3719 21.0169 21.3749 21.0171L21.3811 21.0176C21.3759 21.0173 21.3708 21.0169 21.3658 21.0165Z" fill="white"></path>
    <path d="M38.4701 17.2999C38.0006 17.2999 37.8793 17.5603 37.8482 17.7062L37.8469 17.706C37.6569 18.6238 37.5635 18.8768 37.1491 19.0626C36.5349 19.3382 35.2265 19.392 33.1739 19.392H31.4886C30.7016 19.392 30.521 19.2913 30.3777 18.9886C30.1268 18.4586 30.0754 17.263 30.0754 15.6307V6.6021C30.0754 4.50376 30.0901 3.29043 30.3929 2.75399C30.6251 2.3426 31.0946 2.23842 32.4806 2.11743C32.7842 2.10054 33.018 1.81753 33.018 1.45923C33.018 1.32881 32.9839 1.20705 32.9194 1.107C32.8169 0.948013 32.6421 0.853105 32.4518 0.853105L32.392 0.856998C31.5377 0.971137 30.0432 1.09384 28.7808 1.09384C26.9763 1.09384 25.6594 1.02097 24.5108 0.857543L24.4471 0.853027C24.242 0.853027 24.0626 0.973239 23.9786 1.16671C23.9435 1.24769 23.9258 1.3408 23.9258 1.44358C23.9258 1.83138 24.1192 2.09688 24.4111 2.11696L24.5198 2.12895C25.8154 2.27198 26.275 2.34166 26.5022 2.73881C26.8091 3.27525 26.8246 4.55624 26.8246 6.60186V15.6304C26.8246 17.7658 26.8246 18.942 26.5299 19.4506C26.2971 19.8523 25.7366 19.9325 24.3784 20.0909L24.1674 20.1155C23.869 20.138 23.6406 20.4186 23.6406 20.7726C23.6406 20.9026 23.6744 21.0241 23.7382 21.1239C23.8405 21.2838 24.0155 21.3792 24.2062 21.3792H24.2251L24.2439 21.3776C26.6069 21.18 30.1101 21.1385 32.6329 21.1385C33.8893 21.1385 34.9804 21.2008 35.857 21.2507C36.4951 21.287 37.046 21.3185 37.5076 21.3185C38.1384 21.3185 38.4168 21.1153 38.6533 20.4822L38.2466 20.3304L38.6646 20.4448C38.8203 19.8765 38.9278 19.0948 39.0317 18.3387C39.0541 18.1757 39.076 18.0155 39.0982 17.8614L39.1027 17.7974C39.1027 17.7465 39.0848 17.2999 38.4701 17.2999Z" fill="white"></path>
    <path d="M61.0365 0.853271L60.9728 0.857787C60.73 0.892278 60.5335 0.922487 60.3626 0.948725C59.6548 1.05741 59.4164 1.09401 58.0865 1.09401C56.9719 1.09401 56.3424 1.00681 55.6135 0.905903C55.4976 0.889864 55.3796 0.873592 55.2571 0.857164L55.1973 0.853271C55.012 0.853271 54.8479 0.939849 54.7472 1.09074C54.6836 1.18596 54.6501 1.3029 54.6501 1.42895C54.6501 1.70783 54.8112 2.09767 55.1685 2.1176C56.7916 2.26016 56.7918 2.55485 56.7918 2.74996C56.7918 3.31279 56.4383 4.20535 55.5039 6.42452L51.176 16.5604L47.0721 6.43619C46.0521 3.85024 45.8998 3.0167 45.8998 2.74996C45.8998 2.40489 46.0242 2.32104 47.4527 2.13543L47.5968 2.11666C47.8935 2.09183 48.1199 1.81216 48.1199 1.45947C48.1199 1.32914 48.0858 1.20729 48.0214 1.10724C47.9188 0.948258 47.744 0.853349 47.5537 0.853349L47.4868 0.858332C46.4262 1.01693 44.9716 1.09416 43.0401 1.09416C42.0201 1.09416 40.9061 1.01451 39.7292 0.85732L39.6695 0.853427C39.4636 0.853427 39.2806 0.961415 39.1799 1.14228C39.1244 1.24194 39.0963 1.35771 39.0963 1.4868C39.0963 1.8465 39.2933 2.10133 39.5791 2.11775C41.8993 2.3261 42.174 3.02573 43.4856 6.36893L43.645 6.77487L49.664 21.3411L49.6767 21.3689C49.7805 21.5787 50.0035 21.7096 50.2587 21.7107H50.262C50.5169 21.7107 50.7406 21.5813 50.8463 21.3724L57.2371 6.78352L57.2382 6.78102C58.932 2.84852 59.2585 2.32696 61.0745 2.11713C61.3733 2.0951 61.6021 1.81442 61.6021 1.46001C61.6021 1.33007 61.5683 1.20853 61.5044 1.10872C61.4021 0.948803 61.2272 0.853271 61.0365 0.853271ZM55.2366 1.21609L55.2342 1.21585C55.2416 1.21632 55.2374 1.21624 55.2366 1.21609ZM39.6593 1.21718C39.6558 1.21679 39.6522 1.21648 39.6487 1.21624L39.6413 1.21554C39.6473 1.21601 39.6533 1.21648 39.6593 1.21718Z" fill="white"></path>
    <path d="M70.2409 2.74708C70.4611 2.34027 70.924 2.23719 72.2949 2.1176C72.5982 2.1007 72.8319 1.81792 72.8319 1.45994C72.8319 1.32999 72.7981 1.20846 72.7341 1.10864C72.6318 0.948803 72.4568 0.853349 72.2661 0.853349L72.2063 0.857242C71.352 0.971381 69.8575 1.09408 68.5952 1.09408C66.7776 1.09408 65.4804 1.02129 64.3891 0.858254L64.3223 0.853271C64.1164 0.853271 63.9335 0.96126 63.8327 1.14197C63.7773 1.24162 63.7491 1.35755 63.7491 1.48656C63.7491 1.84331 63.9429 2.09681 64.2248 2.11705L64.3343 2.1292C65.6298 2.27222 66.0894 2.34191 66.3166 2.73906C66.6235 3.27549 66.6391 4.55648 66.6391 6.60211V15.6307C66.6391 17.6754 66.6235 18.9558 66.3164 19.4926C66.0892 19.8898 65.6301 19.9597 64.3363 20.1033L64.2245 20.1157C63.943 20.1361 63.7496 20.3899 63.7496 20.7469C63.7496 20.8757 63.7777 20.9914 63.8331 21.0909C63.9336 21.2715 64.1166 21.3794 64.3223 21.3794L64.3896 21.3744C65.4709 21.2114 66.7679 21.1387 68.5952 21.1387C69.8569 21.1387 71.3515 21.2614 72.2063 21.3755L72.2661 21.3794C72.4568 21.3794 72.6318 21.2839 72.7341 21.1241C72.798 21.0243 72.8318 20.9028 72.8318 20.7728C72.8318 20.4147 72.5982 20.1319 72.2949 20.1151C70.9239 19.9955 70.4609 19.8924 70.2408 19.4856C69.9492 18.9467 69.9492 17.7689 69.9492 15.6307V6.60211C69.9492 4.46383 69.9493 3.286 70.2409 2.74708Z" fill="white"></path>
    <path d="M77.7429 0.433838C76.8532 0.433838 76.2075 1.02898 76.2075 1.8489C76.2075 2.68945 76.7807 2.98554 77.3412 3.26652C78.0996 3.73655 78.2527 4.0398 78.2527 4.37553C78.2527 4.9157 77.6482 5.73803 75.9829 5.78903C75.7992 5.7951 75.5058 5.92364 75.5058 6.37467C75.5058 6.45159 75.5147 6.56745 75.5568 6.68252C75.6572 6.95634 75.8814 7.05398 76.0576 7.05398V6.69093C76.0591 6.69077 76.0609 6.69077 76.0624 6.69069L76.083 7.05585C78.4955 6.9203 80.1805 5.37311 80.1805 3.29339C80.1805 1.43602 78.9246 0.433838 77.7429 0.433838ZM76.0575 6.15005C76.0647 6.15005 76.0717 6.15021 76.0785 6.15052C76.0714 6.15099 76.0646 6.15145 76.0575 6.15184V6.15005ZM76.0084 6.69264L76.0105 6.69248H76.0137C76.0119 6.69248 76.0102 6.69264 76.0084 6.69264ZM76.0575 6.68867V6.60458L76.0622 6.68797C76.0606 6.6882 76.0591 6.68844 76.0575 6.68867Z" fill="white"></path>
    <path d="M90.6473 9.10581C88.5992 7.88781 86.8304 6.83596 86.8304 4.79508C86.8304 3.468 87.9586 2.05761 90.0494 2.05761C92.0451 2.05761 93.3185 3.16194 93.6351 5.16716C93.6639 5.34873 93.8085 5.58767 94.2154 5.58767C94.2923 5.58767 94.4082 5.57887 94.5232 5.53667C94.797 5.43616 94.8946 5.21216 94.8946 5.03597C94.8946 1.84413 94.4709 1.5626 94.3317 1.46995L94.293 1.44698C93.0448 0.785813 91.7915 0.490967 90.2293 0.490967C88.5544 0.490967 86.9941 1.14318 85.836 2.3277C84.7451 3.44332 84.1194 4.9353 84.1194 6.42098C84.1194 9.47875 86.6679 11.0027 88.9164 12.3473C91.0001 13.593 92.9681 14.7699 92.9681 16.9538C92.9681 19.1784 91.1699 20.1741 89.3879 20.1741C86.7354 20.1741 85.079 18.4178 84.8435 15.3554C84.8322 15.237 84.7522 14.8926 84.2122 14.8926C83.6333 14.8926 83.5837 15.2886 83.5799 15.3774C83.5524 16.3505 83.4867 17.2182 83.4341 17.9155C83.3384 19.1824 83.3212 19.4106 83.532 19.6215L83.5597 19.647C85.2465 21.0743 87.0219 21.7393 89.1471 21.7395H89.1484C92.7682 21.7388 95.4978 18.9571 95.4978 15.2685C95.4978 11.9906 92.921 10.4579 90.6473 9.10581ZM94.5291 5.03309L94.5279 5.02608L94.5268 5.01931C94.5276 5.02383 94.5285 5.0285 94.5291 5.03309ZM84.4835 15.4026V15.4005C84.4835 15.4024 84.4835 15.4042 84.4835 15.4061C84.4835 15.405 84.4835 15.4038 84.4835 15.4026ZM83.9421 15.4246C83.9424 15.4274 83.9425 15.4303 83.9428 15.433C83.9424 15.4282 83.9419 15.4235 83.9416 15.4187L83.9421 15.4246Z" fill="white"></path>
    <path d="M120.057 0.972252C119.453 0.972252 118.351 1.00908 117.378 1.0417C116.598 1.06786 115.861 1.09262 115.544 1.09262C113.425 1.09262 111.606 1.00651 110.552 0.856322L110.488 0.851807C110.303 0.851807 110.139 0.937761 110.038 1.08787C109.974 1.18332 109.94 1.30073 109.94 1.42725C109.94 1.70419 110.099 2.09067 110.451 2.11559L110.561 2.12773C111.855 2.27076 112.315 2.34044 112.542 2.73751C112.848 3.27395 112.864 4.55494 112.864 6.60056V15.6292C112.864 17.6744 112.848 18.9551 112.542 19.4914C112.315 19.8885 111.856 19.9583 110.562 20.1018L110.451 20.1142C110.099 20.1393 109.94 20.5256 109.94 20.8025C109.94 20.9291 109.974 21.0464 110.038 21.1419C110.139 21.292 110.303 21.378 110.488 21.378H110.52L110.552 21.3735C111.913 21.1782 113.854 21.1372 115.242 21.1372C115.559 21.1372 116.284 21.1619 117.051 21.1881C118.008 21.2206 119.092 21.2576 119.696 21.2576C122.875 21.2576 125.776 20.1436 127.866 18.1209C129.876 16.1747 130.983 13.5797 130.983 10.8139C130.983 7.97132 130.03 5.54863 128.226 3.80751C126.305 1.95263 123.48 0.972252 120.057 0.972252ZM116.115 6.53976C116.115 4.57853 116.201 3.56911 116.351 2.67172C116.804 2.61286 117.517 2.5389 119.155 2.5389L119.309 2.53843C121.894 2.56771 123.932 3.33811 125.367 4.82923C126.896 6.4169 127.671 8.7541 127.671 11.7757C127.671 16.584 124.848 19.6909 120.478 19.6909C118.449 19.6909 117.244 19.6147 116.688 19.2124C116.249 18.8943 116.115 18.3099 116.115 16.7113L116.115 6.53976Z" fill="white"></path>
    <path d="M154.543 20.5337C153.115 20.5337 151.233 19.4167 149.378 17.4689C147.705 15.711 146.271 13.4998 145.485 11.4773C148.405 10.1126 149.458 7.71846 149.458 5.87838C149.458 2.64527 146.507 0.791016 141.362 0.791016C137.511 0.791016 134.996 0.959421 133.889 1.29164L133.877 1.29553C133.589 1.39098 133.43 1.67151 133.481 1.99345C133.534 2.31905 133.75 2.53767 134.019 2.53767L134.259 2.50793C134.595 2.45927 134.886 2.4173 135.163 2.4173C136.278 2.4173 136.517 2.77264 136.517 6.53985V15.6293C136.517 17.6748 136.502 18.9557 136.195 19.4917C135.969 19.8886 135.509 19.9584 134.215 20.1019L134.103 20.1144C133.816 20.1363 133.619 20.4066 133.619 20.7866C133.619 20.8894 133.637 20.9827 133.672 21.0638C133.756 21.2576 133.936 21.3781 134.141 21.3781L134.205 21.3736C135.376 21.2058 136.613 21.1373 138.475 21.1373C139.737 21.1373 141.232 21.2601 142.087 21.3741L142.147 21.378C142.332 21.378 142.496 21.292 142.597 21.1419C142.661 21.0465 142.695 20.9291 142.695 20.8026C142.695 20.5236 142.533 20.1335 142.176 20.1137C140.79 19.9928 140.321 19.8884 140.089 19.477C139.785 18.9401 139.771 17.727 139.771 15.6292V12.5177C139.979 12.5306 140.19 12.5306 140.582 12.5306C140.87 12.5306 141.767 12.5173 142.613 12.3665C143.392 14.9335 144.677 17.118 146.342 18.7038C148.501 20.7582 151.241 21.8 154.487 21.8V21.7987C154.77 21.7973 155.056 21.58 155.056 21.1661C155.056 20.7937 154.845 20.5337 154.543 20.5337ZM139.77 6.30044C139.77 4.0119 139.885 2.90944 139.984 2.3839C140.181 2.36841 140.366 2.36265 140.564 2.36047H140.943C144.495 2.36047 146.149 3.88063 146.149 7.14449C146.149 8.78472 145.572 10.9653 140.582 10.9653C140.226 10.9653 140.01 10.9653 139.77 10.9484V6.30044ZM154.484 20.8949V20.8962H154.455C154.464 20.8953 154.474 20.8949 154.484 20.8949Z" fill="white"></path>
    <path d="M162.478 2.75424C162.71 2.34284 163.18 2.23851 164.566 2.1176C164.87 2.1007 165.103 1.81792 165.103 1.45994C165.103 1.32999 165.069 1.20853 165.005 1.10864C164.903 0.948803 164.728 0.853349 164.537 0.853349L164.478 0.857242C163.622 0.971303 162.127 1.09408 160.865 1.09408C159.047 1.09408 157.749 1.02129 156.658 0.858254L156.591 0.853271C156.385 0.853271 156.202 0.961104 156.102 1.14189C156.046 1.24131 156.018 1.35701 156.018 1.48586C156.018 1.84284 156.212 2.09673 156.493 2.11705L156.603 2.1292C157.898 2.27222 158.358 2.34191 158.585 2.73906C158.892 3.27549 158.908 4.55648 158.908 6.60211V15.6307C158.908 17.6757 158.892 18.9564 158.586 19.4928C158.359 19.8899 157.899 19.9598 156.605 20.1033L156.493 20.1157C156.212 20.1361 156.019 20.3896 156.019 20.7462C156.019 20.8745 156.047 20.99 156.101 21.0892C156.202 21.271 156.385 21.3794 156.591 21.3794L156.658 21.3745C157.741 21.2114 159.038 21.1388 160.865 21.1388C162.126 21.1388 163.622 21.2615 164.478 21.3756L164.538 21.3794C164.728 21.3794 164.903 21.284 165.006 21.1242C165.069 21.0243 165.103 20.9029 165.103 20.7729C165.103 20.4148 164.87 20.132 164.566 20.1152C163.18 19.9943 162.71 19.89 162.478 19.4786C162.175 18.9416 162.16 17.7286 162.16 15.6307V6.60211C162.16 4.50416 162.175 3.29122 162.478 2.75424Z" fill="white"></path>
    <path d="M185.101 3.49669C185.058 2.88582 185.013 2.25408 184.9 1.79924C184.717 1.06473 184.303 0.914156 183.739 0.914156C183.277 0.914156 182.685 0.945533 181.999 0.981814C181.054 1.03188 179.879 1.09408 178.622 1.09408C175.127 1.09408 172.385 1.01358 170.474 0.854829L170.436 0.853271C170.231 0.853271 170.051 0.973639 169.967 1.16743C169.932 1.24855 169.914 1.3419 169.914 1.44475C169.914 1.82408 170.111 2.09401 170.396 2.11682L170.708 2.1531C172.068 2.31006 172.55 2.38426 172.769 2.7751C173.054 3.28437 173.054 4.46282 173.054 6.60211V15.6307C173.054 17.9075 173.007 19.0109 172.725 19.5305C172.513 19.9222 172.115 19.9951 170.943 20.1155C170.655 20.1358 170.457 20.4065 170.457 20.7878C170.457 20.8907 170.475 20.984 170.51 21.0651C170.594 21.2589 170.773 21.3794 170.978 21.3794L171.043 21.3749C172.258 21.2006 173.312 21.1388 175.071 21.1388C176.334 21.1388 177.892 21.2617 178.807 21.376L178.863 21.3794C179.068 21.3794 179.248 21.2591 179.332 21.0653C179.367 20.9842 179.385 20.8908 179.385 20.788C179.385 20.4037 179.183 20.1315 178.891 20.1152C177.192 19.9718 176.366 18.5048 176.366 15.6307V11.6286H178.021C181.378 11.6286 181.421 11.9107 181.547 12.748L181.558 12.8197L181.591 12.8844C181.75 13.1994 182.182 13.284 182.469 13.1634C182.734 13.0527 182.866 12.7847 182.795 12.5155C182.746 12.2462 182.746 11.5262 182.746 11.1766C182.746 10.4258 182.865 9.54691 182.976 9.04808L182.987 8.99965V8.95006C182.987 8.89929 182.969 8.45348 182.354 8.45348C181.892 8.45348 181.767 8.70566 181.734 8.85234L181.732 8.85211L181.714 8.93752C181.534 9.75658 181.467 10.0631 178.021 10.0631H176.366V6.42218C176.366 4.76031 176.408 3.51849 176.492 2.72021H179.405C181.604 2.72021 182.668 2.83482 183.2 3.12912C183.635 3.36955 183.733 3.76094 183.931 4.70138L183.955 4.81349C183.985 4.99451 184.131 5.22909 184.534 5.22909C184.611 5.22909 184.727 5.22014 184.842 5.17794C185.116 5.07758 185.213 4.85343 185.213 4.67724V4.63979L185.207 4.60296C185.16 4.31839 185.131 3.9193 185.101 3.49669ZM184.718 4.7382C184.744 4.72286 184.761 4.70301 184.761 4.67732C184.76 4.67163 184.76 4.66525 184.759 4.65949L184.842 4.64189C184.849 4.6721 184.852 4.70418 184.852 4.7382H184.718Z" fill="white"></path>
    <path d="M207.753 2.98914C207.753 2.03663 207.861 1.29535 207.98 0.637225C208.027 0.474347 207.99 0.299791 207.875 0.172649C207.614 -0.115812 207.18 0.0400582 207.131 0.058744C206.904 0.146411 206.826 0.306642 206.801 0.418912C206.704 0.834515 206.665 0.936431 206.253 1.03819C205.654 1.18589 204.474 1.21298 202.366 1.21298H193.458C191.367 1.21298 190.201 1.1862 189.636 1.03983C189.286 0.949199 189.253 0.88668 189.148 0.441258C189.103 0.177866 188.842 0.000350903 188.481 0.000350903C188.378 0.000350903 188.285 0.0181803 188.203 0.0532939C188.01 0.137146 187.889 0.316686 187.889 0.522074V0.585449L187.907 0.646334C188.007 0.99677 188.069 1.54878 188.069 2.08709C188.069 2.99615 188.001 3.95675 187.896 4.53438L187.889 4.57447V4.61512C187.889 4.75222 187.949 4.88209 188.055 4.97124C188.205 5.09884 188.4 5.12306 188.776 5.06101L189.081 5.01055L189.145 4.7073C189.348 3.73089 189.509 2.95963 193.458 2.95963H196.316V15.6292C196.316 17.675 196.3 18.9561 195.999 19.4948C195.778 19.8893 195.331 19.9589 194.07 20.1018L193.961 20.1142C193.662 20.1361 193.433 20.4171 193.433 20.7719C193.433 20.9023 193.467 21.024 193.531 21.1241C193.634 21.2831 193.809 21.378 193.999 21.378L194.063 21.3735C195.233 21.2057 196.47 21.1372 198.333 21.1372C199.642 21.1372 201.064 21.2648 201.885 21.374L201.944 21.3779C202.15 21.3779 202.333 21.2701 202.433 21.0893C202.489 20.9899 202.517 20.8742 202.517 20.7453C202.517 20.3847 202.32 20.1294 202.033 20.1135C200.626 19.9935 200.151 19.8898 199.925 19.4805C199.627 18.9429 199.627 17.7659 199.627 15.6291V2.95963H202.366C206.255 2.95963 206.381 3.68643 206.556 4.69243L206.611 5.00876L206.928 5.06093C207.304 5.12298 207.499 5.09877 207.649 4.97116C207.754 4.88201 207.815 4.75215 207.815 4.61504L207.81 4.55049C207.754 4.16144 207.754 3.45769 207.754 2.99202V2.98914L207.302 2.99054V2.98914H207.301H207.753 Z" fill="white"></path>
  </g>
  <defs>
    <clipPath id="clip0_132_1179">
      <rect width="208" height="21.8001" fill="white"></rect>
    </clipPath>
  </defs>
</svg>