<svg xmlns="http://www.w3.org/2000/svg" width="186" height="48" viewBox="0 0 186 48" fill="none">
  <path d="M183.028 24.0644C183.011 28.2257 181.301 31.9985 178.338 34.4145C174.266 37.7349 172.126 41.2904 171.44 45.897L139.69 45.8951L13.7153 45.8907C12.9921 41.2493 10.7954 37.6203 6.63582 34.1719C3.74568 31.7757 2.0987 28.0447 2.11518 23.9363C2.13121 19.7754 3.8405 16.0025 6.80448 13.5863C10.8754 10.2662 13.0152 6.71035 13.7015 2.10297L171.427 2.10926C172.151 6.75155 174.347 10.3805 178.506 13.8281C181.396 16.2243 183.044 19.9553 183.028 24.0644Z" fill="#000000"/>
  <path d="M179.861 12.2132C175.895 8.92435 173.903 5.44911 173.405 0.943884L173.301 0.00707239L170.66 0.00628657C165.578 0.00628657 87.8814 0.00550075 61.2224 0.00269425L11.8146 0L11.7176 0.944782C11.2496 5.47269 9.37988 8.76707 5.46287 11.9603C2.01053 14.7752 0.0200213 19.1366 0.00015231 23.9277C-0.0197166 28.6656 1.9052 32.9878 5.28146 35.7869C9.24813 39.075 11.2397 42.5507 11.738 47.0573L11.8416 47.9938L173.328 48.0001L173.425 47.0553C173.892 42.5284 175.762 39.2349 179.68 36.0406C183.132 33.224 185.123 28.8615 185.143 24.0724C185.162 19.3342 183.236 15.0121 179.861 12.2132ZM183.028 24.0644C183.011 28.2257 181.301 31.9985 178.338 34.4145C174.266 37.7349 172.126 41.2904 171.44 45.897L139.69 45.8951L13.7153 45.8907C12.9921 41.2493 10.7954 37.6203 6.63582 34.1719C3.74568 31.7757 2.0987 28.0447 2.11518 23.9363C2.13121 19.7754 3.8405 16.0025 6.80448 13.5863C10.8754 10.2662 13.0152 6.71035 13.7015 2.10297L171.427 2.10926C172.151 6.75155 174.347 10.3805 178.506 13.8281C181.396 16.2243 183.044 19.9553 183.028 24.0644Z" fill="#D4A64A"/>
  <path d="M32.8061 13.3191H29.9337L29.3091 19.4668H26.5299L27.1549 13.3191H24.3133L23.6573 19.4668H21.4408V22.013H23.4076L23.0328 25.5836H20.8163V28.1295H22.7522L22.0648 34.7432H24.9378L25.6246 28.1295H28.4033L27.7165 34.7432H30.5581L31.2449 28.1295H33.7739V25.5836H31.526L31.9002 22.013H34.367V19.4668H32.15L32.8061 13.3191ZM28.6531 25.5836H25.8744L26.2492 22.013H29.0279L28.6531 25.5836Z" fill="white"/>
  <path d="M34.8327 16.7656H38.5795V34.7431H42.3884V16.7656H46.1043V13.3191H34.8327V16.7656Z" fill="white"/>
  <path d="M55.8575 22.1371H51.7981V13.3191H47.9578V34.7431H51.7981V25.5523H55.8575V34.7431H59.6978V13.3191H55.8575V22.1371Z" fill="white"/>
  <path d="M61.9854 34.7431H71.6021V31.3275H65.7949V25.5523H70.7902V22.1371H65.7949V16.7656H71.6021V13.3191H61.9854V34.7431Z" fill="white"/>
  <path d="M78.9307 13.0085C77.3901 13.0085 76.1514 13.4432 75.2149 14.3126C74.2783 15.1819 73.8098 16.3517 73.8098 17.8213V19.7151H77.5256V18.2869C77.5256 17.0451 77.9628 16.4241 78.837 16.4241C79.7317 16.4241 80.1793 16.9933 80.1793 18.1315V19.3427C80.1793 20.0257 80.1016 20.5897 79.945 21.0348C79.789 21.4799 79.5239 22.0129 79.149 22.6337L73.6853 31.4208V34.7431H83.9574V31.2966H77.9628L82.3962 24.2483C82.9376 23.3789 83.3334 22.5975 83.5831 21.9042C83.8328 21.2108 83.9573 20.3981 83.9573 19.4669V17.9455C83.9573 16.4346 83.5047 15.2339 82.5991 14.3439C81.6939 13.4537 80.4708 13.0085 78.9307 13.0085Z" fill="white"/>
  <path d="M91.2297 13.0085C89.6895 13.0085 88.451 13.4432 87.5139 14.3126C86.5773 15.1819 86.1088 16.3517 86.1088 17.8213V19.7151H89.8247V18.2869C89.8247 17.0451 90.2618 16.4241 91.136 16.4241C92.0312 16.4241 92.4789 16.9933 92.4789 18.1315V19.3427C92.4789 20.0257 92.4006 20.5897 92.2446 21.0348C92.0886 21.4799 91.823 22.0129 91.4486 22.6337L85.9843 31.4208V34.7431H96.257V31.2966H90.2619L94.696 24.2483C95.2373 23.3789 95.6325 22.5975 95.8822 21.9042C96.1319 21.2108 96.257 20.3981 96.257 19.4669V17.9455C96.257 16.4346 95.8039 15.2339 94.8988 14.3439C93.9932 13.4537 92.7699 13.0085 91.2297 13.0085Z" fill="white"/>
  <path d="M98.1833 15.7098V20.1498L101.15 17.7591V34.7431H105.052V13.3191H101.15L98.1833 15.7098Z" fill="white"/>
  <path d="M113.8 13.0085C111.927 13.0085 110.417 13.5312 109.273 14.5765C108.128 15.6217 107.556 17.1588 107.556 19.1872V28.8436C107.556 30.8515 108.097 32.378 109.179 33.4234C110.262 34.4688 111.729 34.9913 113.582 34.9913C115.413 34.9913 116.907 34.4635 118.062 33.4078C119.217 32.3521 119.795 30.831 119.795 28.8436V23.317H113.675V26.3288H115.955V28.5953C115.955 29.5474 115.767 30.277 115.392 30.7844C115.018 31.2915 114.456 31.545 113.707 31.545C112.166 31.545 111.396 30.4996 111.396 28.409V19.8083C111.396 18.6906 111.578 17.8522 111.942 17.2934C112.307 16.7343 112.895 16.455 113.707 16.455C114.373 16.455 114.914 16.6775 115.33 17.1224C115.746 17.5675 115.955 18.2042 115.955 19.0322V19.6842H119.795V19.0322C119.795 17.0452 119.243 15.5444 118.14 14.53C117.037 13.5156 115.59 13.0085 113.8 13.0085Z" fill="white"/>
  <path d="M126.244 13.3191L120.717 34.7431H124.714L125.589 30.5824H130.615L131.49 34.7431H135.486L129.991 13.3191H126.244ZM126.307 27.1672L128.118 18.4733L129.928 27.1672H126.307Z" fill="white"/>
  <path d="M144.651 24.621L140.905 13.3191H137.064V34.7431H140.905V22.2923L143.621 30.5824H145.682L148.43 22.1993V34.7431H152.271V13.3191H148.43L144.651 24.621Z" fill="white"/>
  <path d="M154.709 34.7431H164.326V31.3275H158.519V25.5523H163.514V22.1371H158.519V16.7656H164.326V13.3191H154.709V34.7431Z" fill="white"/>
</svg>
